<svg width="24" height="24" viewBox="0 0 24 24" fill="none" xmlns="http://www.w3.org/2000/svg">
<path d="M15.8404 23C16.8516 23 17.8371 22.6501 18.6005 22.0034C19.4889 21.2538 20 20.1766 20 19.0474V4.95045C20 3.8213 19.4911 2.74412 18.6005 1.99444C17.7121 1.24486 16.5235 0.89286 15.3459 1.02857L7.66283 1.90221C5.57467 2.14076 4 3.82651 4 5.82393V11.1844H11.9319L9.68084 9.04596C9.34602 8.72789 9.34602 8.21263 9.68084 7.89561C10.0157 7.57754 10.5581 7.57754 10.8918 7.89561L14.606 11.424C14.9409 11.7421 14.9409 12.2574 14.606 12.5744L10.8918 16.1028C10.7255 16.2629 10.5056 16.3414 10.2858 16.3414C10.0659 16.3414 9.84601 16.2629 9.67973 16.1028C9.3449 15.7848 9.3449 15.2695 9.67973 14.9525L11.9319 12.8129H4V18.1735C4 20.1709 5.57476 21.8588 7.66283 22.0952L15.3459 22.972C15.5111 22.9911 15.6774 22.9996 15.8403 22.9996L15.8404 23Z" fill="black"/>
</svg>
