<svg width="24" height="24" viewBox="0 0 24 24" fill="none" xmlns="http://www.w3.org/2000/svg">
<path d="M17.0155 6.16339C16.6818 5.82965 16.1412 5.82965 15.8085 6.16339C15.4748 6.49712 15.4748 7.03775 15.8085 7.37038L19.5853 11.1503H8.72345C8.25065 11.1503 7.8691 11.5318 7.8691 12.0046C7.8691 12.4774 8.25065 12.859 8.72345 12.859H19.5853L15.8054 16.6358C15.4717 16.9695 15.4717 17.5101 15.8054 17.8428C15.9734 18.0107 16.1903 18.0931 16.4095 18.0931C16.6286 18.0931 16.8478 18.0107 17.0135 17.8428L22.2475 12.6088C22.5813 12.275 22.5813 11.7344 22.2475 11.4018L17.0155 6.16339Z" fill="black"/>
<path d="M6.73005 12.0048C6.73005 10.9024 7.62111 10.0114 8.72353 10.0114H13.388V5.79088C13.388 4.37586 12.4369 3.13441 11.073 2.76052L5.98139 1.11969C5.96693 1.11412 5.95247 1.11079 5.93578 1.10522C4.98799 0.854925 3.99681 1.05628 3.22146 1.65477C2.44386 2.25327 2 3.16101 2 4.14106V19.8585C2 20.8385 2.44386 21.7463 3.22146 22.3448C3.77989 22.7753 4.44625 23 5.12927 23C5.39737 23 5.66768 22.9655 5.93467 22.8943C5.94913 22.891 5.96359 22.8854 5.98028 22.8799L11.0719 21.2424C12.4358 20.8719 13.3869 19.6304 13.3869 18.212L13.388 13.9981H8.72353C7.62111 13.9981 6.73005 13.1073 6.73005 12.0048Z" fill="black"/>
</svg>
