<svg width="24" height="24" viewBox="0 0 24 24" fill="none" xmlns="http://www.w3.org/2000/svg">
<path fill-rule="evenodd" clip-rule="evenodd" d="M4.50247 2C3.132 2 2 3.12617 2 4.49713V19.5018C2 20.8728 3.132 22 4.50247 22H19.4964C20.8669 22 21.9989 20.8718 21.9989 19.5018L21.9991 16.488C21.9998 16.4738 22.0001 16.4595 22 16.4452C22 16.4325 21.9997 16.4198 21.9991 16.4071L21.9994 11.7546C21.9998 11.7451 21.9999 11.7356 21.9999 11.726C22 11.7151 21.9998 11.7041 21.9994 11.6932L21.9999 4.49713C21.9999 3.12617 20.8679 2 19.4975 2H4.50247ZM20.3339 15.6149V12.5574H15.8876V15.6149H20.3339ZM14.2208 15.6149V12.5574H9.78082V15.6149H14.2208ZM9.78082 17.2818H14.2208V20.3331H9.78082V17.2818ZM8.11399 15.6149V12.5574H3.66673L3.66705 15.6149H8.11399ZM3.66722 17.2818H8.11399V20.3331H4.50369C4.02776 20.3331 3.66746 19.9778 3.66746 19.5017L3.66722 17.2818ZM15.8876 17.2818H20.3339V19.5017C20.3339 19.9778 19.9735 20.3331 19.4976 20.3331H15.8876V17.2818ZM20.3339 7.83178V10.8895L15.8876 10.8895V7.83178H20.3339ZM14.2208 7.83178V10.8895H9.78082V7.83178H14.2208ZM8.11399 7.83178V10.8895L3.66655 10.8895L3.66623 7.83178H8.11399Z" fill="black"/>
</svg>
