<svg width="24" height="24" viewBox="0 0 24 24" fill="none" xmlns="http://www.w3.org/2000/svg">
<path fill-rule="evenodd" clip-rule="evenodd" d="M22.9329 10.7857C22.8912 10.4529 22.6849 10.1644 22.3841 10.0171L20.9795 9.31606C20.75 9.19697 20.5732 8.99808 20.4835 8.75622C20.4246 8.60276 20.3608 8.45052 20.2933 8.30074C20.184 8.06501 20.168 7.79735 20.2466 7.5506L20.7438 6.06012C20.8531 5.74337 20.7954 5.39345 20.5891 5.12828C20.0821 4.49355 19.5063 3.91772 18.8715 3.41069C18.6076 3.20565 18.2577 3.14672 17.9409 3.25599L16.4492 3.75321C16.2024 3.83302 15.9348 3.81705 15.6991 3.70779C15.5493 3.64026 15.397 3.57642 15.2436 3.51749C15.0017 3.42664 14.8028 3.24984 14.6838 3.02149L13.9815 1.61694H13.9827C13.8354 1.31492 13.5469 1.10865 13.2141 1.06814C12.4075 0.977287 11.5923 0.977287 10.7857 1.06814C10.4529 1.10866 10.1644 1.31492 10.0183 1.61694L9.31606 3.02023C9.19697 3.24982 8.99808 3.42662 8.75622 3.51623C8.60276 3.57516 8.45052 3.63901 8.30074 3.70653C8.06501 3.8158 7.79735 3.83176 7.5506 3.75319L6.06012 3.25596C5.74336 3.14669 5.39345 3.2044 5.12828 3.41066C4.49477 3.91772 3.91772 4.49352 3.41068 5.12825C3.20565 5.39221 3.14672 5.74211 3.25599 6.05886L3.75321 7.55057C3.83302 7.79734 3.81705 8.06498 3.70779 8.30071C3.64026 8.45049 3.57642 8.60273 3.51749 8.7562C3.42664 8.99806 3.24984 9.19817 3.02149 9.31603L1.61694 10.0183C1.31492 10.1644 1.10865 10.4529 1.06814 10.7856C0.977287 11.5923 0.977287 12.4075 1.06814 13.2141C1.10866 13.5468 1.31492 13.8354 1.61694 13.9827L3.02149 14.685V14.6837C3.24985 14.8028 3.42665 15.0017 3.51749 15.2436C3.57642 15.397 3.64026 15.5493 3.70779 15.699C3.81706 15.9348 3.83302 16.2024 3.75321 16.4492L3.25599 17.9397C3.14672 18.2564 3.20442 18.6063 3.41068 18.8703C3.91775 19.505 4.49355 20.0821 5.12828 20.5891C5.39224 20.7942 5.74336 20.8531 6.05889 20.7438L7.5506 20.2466H7.55182C7.7986 20.1668 8.06624 20.1828 8.30074 20.292C8.45052 20.3595 8.60276 20.4234 8.75623 20.4823H8.75745C8.99932 20.572 9.1982 20.7487 9.31606 20.9783L10.0183 22.3829C10.1644 22.6837 10.4542 22.8912 10.7857 22.9317C11.5935 23.0213 12.4075 23.0213 13.2154 22.9317C13.5469 22.8912 13.8354 22.6837 13.9827 22.3829L14.685 20.9783C14.8028 20.7487 15.0017 20.5719 15.2436 20.4823C15.3971 20.4234 15.5493 20.3596 15.6991 20.292H15.7003C15.9348 20.1828 16.2025 20.1668 16.4492 20.2466L17.9397 20.7438C18.2565 20.8531 18.6064 20.7954 18.8703 20.5891C19.505 20.0821 20.0821 19.5063 20.5892 18.8715C20.7942 18.6076 20.8531 18.2577 20.7439 17.9409L20.2466 16.4492C20.1668 16.2024 20.1828 15.9348 20.2921 15.6991C20.3596 15.5493 20.4234 15.397 20.4824 15.2436C20.572 15.0017 20.7488 14.8028 20.9784 14.6838L22.3829 13.9815V13.9827C22.6837 13.8354 22.8912 13.5469 22.9317 13.2141C23.0226 12.4075 23.0225 11.5923 22.9329 10.7857ZM11.9999 17.0286C10.6666 17.0286 9.38731 16.4982 8.44456 15.5553C7.50181 14.6124 6.97127 13.3331 6.97127 12C6.97127 10.6668 7.50166 9.38734 8.44456 8.44459C9.38746 7.50185 10.6668 6.97131 11.9999 6.97131C13.3331 6.97131 14.6126 7.50169 15.5553 8.44459C16.4981 9.3875 17.0286 10.6668 17.0286 12C17.0286 13.3331 16.4982 14.6126 15.5553 15.5553C14.6124 16.4981 13.3331 17.0286 11.9999 17.0286Z" fill="black"/>
</svg>
