<svg xmlns="http://www.w3.org/2000/svg" width="30" height="30" viewBox="0 0 30 30">
  <g id="add--white--30" transform="translate(-331 -1048)">
    <rect id="Rectangle_23430" data-name="Rectangle 23430" width="30" height="30" transform="translate(331 1048)" fill="none" opacity="0.3"/>
    <path id="Union_63" data-name="Union 63" d="M2179.121-4757.883v-10.238h-10.246A.883.883,0,0,1,2168-4769a.884.884,0,0,1,.875-.883h10.246v-10.238A.873.873,0,0,1,2180-4781a.868.868,0,0,1,.875.879v10.238h10.246a.885.885,0,0,1,.879.883.884.884,0,0,1-.879.879h-10.246v10.238a.879.879,0,0,1-.875.883A.884.884,0,0,1,2179.121-4757.883Zm.123,0a.762.762,0,0,0,.756.766.763.763,0,0,0,.758-.766v-10.359h10.363a.756.756,0,0,0,.758-.758.756.756,0,0,1-.758.758h-10.363v10.359a.763.763,0,0,1-.758.766A.762.762,0,0,1,2179.244-4757.883ZM2168.117-4769a.756.756,0,0,0,.758.758h0a.756.756,0,0,1-.758-.758Zm12.641-.762v0Z" transform="translate(-1834 5832)" fill="#fff"/>
  </g>
</svg>
