<svg id="圖層_1" data-name="圖層 1" xmlns="http://www.w3.org/2000/svg" viewBox="0 0 512 512"><defs><style>.cls-1{fill:#008dcf;}.cls-2{fill:#e23c1b;}.cls-3{fill:#ec6716;}.cls-4{fill:#f6a807;}.cls-5{fill:#9dc63a;}</style></defs><path class="cls-1" d="M114.48,366.15h67.15s55.85-54.6,150-32C331.62,334.14,235.59,282.05,114.48,366.15Z"/><path class="cls-2" d="M263.21,127.66s49,109.2,222.79,159.41H368.65s0,47.69,99.78,97.27c0,0-119.87-20.71-153.13-113.59h56.48S275.13,208,263.21,127.66Z"/><path class="cls-3" d="M209.88,192.31s15.06,15.05,21.33,18.82c0,0,27-25.72,31.39-54C262.6,157.17,238.75,196.07,209.88,192.31Z"/><path class="cls-4" d="M188.54,182.9s43.3,60.87,95.39,72.79h-54.6S194.19,236.23,188.54,182.9Z"/><path class="cls-5" d="M179.76,174.73S146.49,258.83,26,305.9l102.3-15.07S122,336.65,51.73,366.15c0,0,92.88-7.53,119.24-81.59l101-13.81H131.43S176,228.71,179.76,174.73Z"/></svg>