<svg id="圖層_1" data-name="圖層 1" xmlns="http://www.w3.org/2000/svg" viewBox="0 0 192 192"><defs><style>.cls-1{fill:#008dcf;}.cls-2{fill:#e23c1b;}.cls-3{fill:#ec6716;}.cls-4{fill:#f6a807;}.cls-5{fill:#9dc63a;}</style></defs><path class="cls-1" d="M43.7,136.71H68.52S89.16,116.53,124,124.88C124,124.88,88.46,105.63,43.7,136.71Z"/><path class="cls-2" d="M98.66,48.57S116.75,88.93,181,107.48H137.63s0,17.63,36.88,36c0,0-44.3-7.65-56.6-42h20.88S103.07,78.25,98.66,48.57Z"/><path class="cls-3" d="M79,72.46s5.56,5.57,7.88,7c0,0,10-9.51,11.6-20C98.44,59.47,89.62,73.85,79,72.46Z"/><path class="cls-4" d="M71.07,69s16,22.5,35.25,26.91H86.14S73.16,88.7,71.07,69Z"/><path class="cls-5" d="M67.82,66S55.53,97,11,114.44l37.81-5.57s-2.32,16.93-28.3,27.84c0,0,34.32-2.79,44.07-30.16l37.33-5.1H50S66.43,85.91,67.82,66Z"/></svg>