<svg xmlns="http://www.w3.org/2000/svg" width="15" height="15" viewBox="0 0 15 15">
  <g id="import--gray-15" transform="translate(-1530 -334)">
    <rect id="Rectangle_22438" data-name="Rectangle 22438" width="15" height="15" transform="translate(1530 334)" fill="#a4b7d1" opacity="0"/>
    <g id="Group_17074" data-name="Group 17074" transform="translate(1530 334.916)">
      <path id="Path_24671" data-name="Path 24671" d="M9.419,9.979a.427.427,0,0,1-.309-.132L6.118,6.712a.428.428,0,0,1,.309-.723H7.994V2.712A.713.713,0,0,1,8.707,2h1.425a.713.713,0,0,1,.712.712V5.99h1.567a.428.428,0,0,1,.309.723L9.728,9.847A.427.427,0,0,1,9.419,9.979Z" transform="translate(16.505 9.979) rotate(180)" fill="#a4b7d1"/>
      <rect id="Rectangle_22437" data-name="Rectangle 22437" width="14.169" height="1.954" rx="0.977" transform="translate(0 10.69)" fill="#a4b7d1"/>
    </g>
  </g>
</svg>
