<svg xmlns="http://www.w3.org/2000/svg" width="191.306" height="88.906" viewBox="0 0 191.306 88.906">
  <g id="logo" transform="translate(-1468 -399)">
    <g id="Group_20981" data-name="Group 20981" transform="translate(1468 453.175)">
      <path id="Path_24734" data-name="Path 24734" d="M36.126,35.431H22.351L22.47,5.6H14.782l.008,29.832h-14V.835H32.019a3.8,3.8,0,0,1,3.394,1.4c.811,1,.69,2.3.69,3.886Z" transform="translate(-0.788 -0.7)" fill="#a7a9b2"/>
      <path id="Path_24735" data-name="Path 24735" d="M110.486,35.431H96.71L96.829,5.6H89.141l.008,29.832h-14V.835h31.231a3.8,3.8,0,0,1,3.393,1.4c.811,1,.691,2.3.691,3.886Z" transform="translate(7.687 -0.7)" fill="#a7a9b2"/>
      <path id="Path_24736" data-name="Path 24736" d="M73.4,35.443H59.724V24.611H51.889l.05,10.832H37.867V6.257A6.82,6.82,0,0,1,40.339,2.32,6.975,6.975,0,0,1,44.757.841L64.2.711a11.994,11.994,0,0,1,6.677,1.561,5.077,5.077,0,0,1,2.507,3.855ZM51.935,5.153,51.889,20.3h7.835V5.153Z" transform="translate(3.55 -0.711)" fill="#a7a9b2"/>
      <path id="Path_24737" data-name="Path 24737" d="M112.228,6.225a6.562,6.562,0,0,1,2.465-3.886,7.042,7.042,0,0,1,4.438-1.5h21.933c1.665,0,3.334.016,4.9,1.5a6.905,6.905,0,0,1,1.77,3.886l.018,22.437a8.521,8.521,0,0,1-3.09,4.92,8.712,8.712,0,0,1-5.522,1.849H119.072a10.2,10.2,0,0,1-4.372-.767c-1.866-.865-2.471-1.735-2.471-3.834C112.228,25.238,112.228,6.225,112.228,6.225ZM125.519,5.5l.034,25.135,7.73.036L133.121,5.5h-7.6Z" transform="translate(12.023 -0.7)" fill="#a7a9b2"/>
    </g>
    <g id="Group_21140" data-name="Group 21140" transform="translate(29)">
      <circle id="Ellipse_373" data-name="Ellipse 373" cx="6.903" cy="6.903" r="6.903" transform="translate(1616.5 430.556)" fill="#1976d2"/>
      <circle id="Ellipse_374" data-name="Ellipse 374" cx="9.861" cy="9.861" r="9.861" transform="translate(1581 399)" fill="#5dd0fc"/>
    </g>
  </g>
</svg>
