<svg xmlns="http://www.w3.org/2000/svg" width="30" height="30" viewBox="0 0 30 30">
  <g id="nav-event--gray" transform="translate(-322 -422)">
    <rect id="Rectangle_23428" data-name="Rectangle 23428" width="30" height="30" transform="translate(322 422)" fill="none" opacity="0.2"/>
    <path id="Union_61" data-name="Union 61" d="M2189.351-4759.369a12.767,12.767,0,0,0-9.882-4.711,12.774,12.774,0,0,0-9.886,4.715.905.905,0,0,1-.677.3.9.9,0,0,1-.581-.212.9.9,0,0,1-.127-1.253,14.924,14.924,0,0,1,6.988-4.721,8.445,8.445,0,0,1-3.924-9.342,8.447,8.447,0,0,1,8.208-6.411,8.447,8.447,0,0,1,8.207,6.411,8.445,8.445,0,0,1-3.925,9.342,14.913,14.913,0,0,1,6.986,4.719.9.9,0,0,1,.176.9.9.9,0,0,1-.7.591.845.845,0,0,1-.148.013A.9.9,0,0,1,2189.351-4759.369Zm1.422-.31a.756.756,0,0,1-.588.494l-.02,0,.02,0a.756.756,0,0,0,.588-.494.75.75,0,0,0,.042-.249A.75.75,0,0,1,2190.773-4759.679Zm-21.867.47c-.027,0-.053,0-.08,0C2168.852-4759.211,2168.878-4759.209,2168.905-4759.209Zm.059,0a.748.748,0,0,0,.449-.194A.748.748,0,0,1,2168.964-4759.211Zm-.545-.176a.445.445,0,0,0,.037.029.445.445,0,0,1-.037-.029.753.753,0,0,1-.269-.572A.753.753,0,0,0,2168.419-4759.387Zm1.05-.074-.014.015.014-.015a12.921,12.921,0,0,1,10-4.768,12.92,12.92,0,0,1,10,4.768,12.92,12.92,0,0,0-10-4.768A12.921,12.921,0,0,0,2169.469-4759.461Zm13.9-5.743a8.31,8.31,0,0,0,4.407-7.351A8.31,8.31,0,0,1,2183.372-4765.2Zm-7.807,0a8.312,8.312,0,0,1-4.408-7.351A8.312,8.312,0,0,0,2175.564-4765.2Zm-2.748-7.334a6.669,6.669,0,0,0,6.651,6.65,6.658,6.658,0,0,0,6.651-6.65,6.659,6.659,0,0,0-6.651-6.651A6.659,6.659,0,0,0,2172.817-4772.539Zm13.45,0a6.8,6.8,0,0,0-6.8-6.8,6.8,6.8,0,0,0-6.8,6.8,6.8,6.8,0,0,1,6.8-6.8A6.8,6.8,0,0,1,2186.267-4772.539Zm6.9,7.554v-2.118h-2.118a.905.905,0,0,1-.9-.9.906.906,0,0,1,.9-.9h2.118v-2.117a.905.905,0,0,1,.9-.9.9.9,0,0,1,.9.9v2.117h2.118a.905.905,0,0,1,.9.9.9.9,0,0,1-.9.9h-2.118v2.118a.9.9,0,0,1-.9.9A.906.906,0,0,1,2193.17-4764.985Zm.148,0a.756.756,0,0,0,.756.756.756.756,0,0,0,.756-.756v-2.266h2.267a.755.755,0,0,0,.756-.756.755.755,0,0,1-.756.756h-2.267v2.266a.756.756,0,0,1-.756.756A.756.756,0,0,1,2193.318-4764.985Zm-3.022-3.022a.755.755,0,0,0,.756.756h0a.755.755,0,0,1-.756-.756Zm4.533-.755v0Z" transform="translate(-1846 5207)" fill="#b6c5da"/>
  </g>
</svg>
