<svg xmlns="http://www.w3.org/2000/svg" width="30" height="30" viewBox="0 0 30 30">
  <g id="nav-materials--white" transform="translate(-233.473 -775)">
    <rect id="Rectangle_23213" data-name="Rectangle 23213" width="30" height="30" transform="translate(233.473 775)" fill="none"/>
    <path id="Union_50" data-name="Union 50" d="M1.686,18.468a.82.82,0,0,1-.045-.088.833.833,0,0,1,.311-1.127l9.475-5.473V.833A.833.833,0,0,1,12.261,0,12.262,12.262,0,1,1,1.686,18.468Zm10.569,4.39A10.6,10.6,0,0,0,21.824,7.7L12.69,12.975l-.027.016L3.531,18.265A10.584,10.584,0,0,0,12.255,22.858Zm.839-12.041,7.9-4.562a10.58,10.58,0,0,0-7.9-4.557ZM.677,15.113a.835.835,0,0,1-.472-.6A11.93,11.93,0,0,1,0,12.257,12.265,12.265,0,0,1,8.175.7a.833.833,0,0,1,1.11.786v8.57a.833.833,0,0,1-.416.721l-7.428,4.3a.834.834,0,0,1-.765.036Zm.99-2.853c0,.249.007.5.024.747L7.618,9.578V2.738A10.6,10.6,0,0,0,1.667,12.26Z" transform="translate(235.976 777.976)" fill="#fff"/>
  </g>
</svg>
