<svg xmlns="http://www.w3.org/2000/svg" width="30" height="30" viewBox="0 0 30 30">
  <g id="nav-setting--gray" transform="translate(-208 -761)" style="isolation: isolate">
    <rect id="Rectangle_22816" data-name="Rectangle 22816" width="30" height="30" transform="translate(208 761)" fill="none"/>
    <path id="Union_39" data-name="Union 39" d="M16.369,24.958l-2.735-1.641q-.5.023-1.009,0l-2.733,1.64a.937.937,0,0,1-.768.089,13.023,13.023,0,0,1-4.818-2.777A.937.937,0,0,1,4,21.558l.054-3.189c-.181-.283-.35-.576-.5-.874L.763,15.948a.937.937,0,0,1-.461-.62,13.026,13.026,0,0,1,0-5.561.938.938,0,0,1,.461-.622L3.548,7.6c.155-.3.323-.591.505-.873L4,3.538a.937.937,0,0,1,.307-.709A13.024,13.024,0,0,1,9.12.045a.938.938,0,0,1,.769.089l2.735,1.641q.5-.023,1.009,0L16.366.136a.937.937,0,0,1,.768-.089,13.024,13.024,0,0,1,4.818,2.777.938.938,0,0,1,.308.71L22.2,6.723c.181.283.35.576.5.874l2.786,1.547a.938.938,0,0,1,.461.62,13.025,13.025,0,0,1,0,5.561.938.938,0,0,1-.461.622L22.71,17.494c-.155.3-.324.591-.505.874l.054,3.186a.938.938,0,0,1-.307.709,13.025,13.025,0,0,1-4.814,2.784.938.938,0,0,1-.769-.089Zm-2.019-3.4,2.611,1.566a11.137,11.137,0,0,0,3.415-1.975l-.051-3.043a.938.938,0,0,1,.163-.545,8.93,8.93,0,0,0,.668-1.156A.937.937,0,0,1,21.546,16l2.662-1.478a11.137,11.137,0,0,0,0-3.945L21.544,9.1a.937.937,0,0,1-.39-.414,8.915,8.915,0,0,0-.667-1.157.938.938,0,0,1-.163-.543l.051-3.044a11.133,11.133,0,0,0-3.418-1.97l-2.61,1.566a.938.938,0,0,1-.553.131,8.882,8.882,0,0,0-1.335,0l-.07,0a.938.938,0,0,1-.482-.134L9.3,1.965A11.137,11.137,0,0,0,5.882,3.941l.051,3.043a.938.938,0,0,1-.163.545A8.922,8.922,0,0,0,5.1,8.684a.938.938,0,0,1-.389.412L2.05,10.574a11.137,11.137,0,0,0,0,3.946L4.714,16a.937.937,0,0,1,.39.414,8.924,8.924,0,0,0,.667,1.157.938.938,0,0,1,.163.543l-.051,3.044A11.137,11.137,0,0,0,9.3,23.125l2.61-1.566a.937.937,0,0,1,.553-.131,8.9,8.9,0,0,0,1.335,0l.069,0A.938.938,0,0,1,14.35,21.56ZM6.567,12.546a6.562,6.562,0,1,1,6.562,6.562A6.57,6.57,0,0,1,6.567,12.546Zm1.875,0a4.688,4.688,0,1,0,4.687-4.688A4.693,4.693,0,0,0,8.442,12.546Z" transform="translate(209.871 763.454)" fill="#b6c5da"/>
  </g>
</svg>
