<svg xmlns="http://www.w3.org/2000/svg" width="30" height="30" viewBox="0 0 30 30">
  <g id="nav-news--gray" transform="translate(-322 -464)">
    <rect id="Rectangle_23429" data-name="Rectangle 23429" width="30" height="30" transform="translate(322 464)" fill="none" opacity="0.2"/>
    <path id="Union_62" data-name="Union 62" d="M2170.95-4760.846a2.955,2.955,0,0,1-2.95-2.937v-12.23a.914.914,0,0,1,.913-.913.915.915,0,0,1,.914.913v12.218a1.124,1.124,0,0,0,1.123,1.122,1.123,1.123,0,0,0,1.122-1.122v-15.273A1.935,1.935,0,0,1,2174-4781h20.364a1.934,1.934,0,0,1,1.932,1.932v15.273a2.953,2.953,0,0,1-2.95,2.949Zm-2.8-2.938a2.8,2.8,0,0,0,2.8,2.789h22.4a2.8,2.8,0,0,0,2.8-2.8v0a2.8,2.8,0,0,1-2.8,2.8h-22.4A2.8,2.8,0,0,1,2168.15-4763.785Zm5.6-15.284v15.273a2.772,2.772,0,0,1-.306,1.272,2.772,2.772,0,0,0,.306-1.272v-15.273a.254.254,0,0,1,.254-.254h20.364a.254.254,0,0,1,.254.254.254.254,0,0,0-.254-.254H2174A.254.254,0,0,0,2173.75-4779.068Zm.15,0v15.273a2.925,2.925,0,0,1-.222,1.122h19.672a1.124,1.124,0,0,0,1.123-1.122v-15.273a.1.1,0,0,0-.1-.1H2174A.1.1,0,0,0,2173.9-4779.068Zm-4.222,15.273v0Zm9.418-4.178a.914.914,0,0,1-.913-.913.915.915,0,0,1,.913-.915h10.182a.915.915,0,0,1,.913.915.914.914,0,0,1-.913.913Zm-.763-.913a.764.764,0,0,0,.763.763h10.182a.764.764,0,0,0,.763-.763.764.764,0,0,1-.763.763H2179.1a.764.764,0,0,1-.763-.763Zm.763-3.159a.915.915,0,0,1-.913-.913.915.915,0,0,1,.913-.915h10.182a.915.915,0,0,1,.913.915.915.915,0,0,1-.913.913Zm-.763-.913a.764.764,0,0,0,.763.763h10.182a.764.764,0,0,0,.763-.763.764.764,0,0,1-.763.763H2179.1a.764.764,0,0,1-.763-.763Z" transform="translate(-1845 5250)" fill="#b6c5da"/>
  </g>
</svg>
