<svg width="30" height="30" viewBox="0 0 30 30" fill="none" xmlns="http://www.w3.org/2000/svg">
<g clip-path="url(#clip0_7_21)">
<path d="M21.351 25.6309C20.1563 24.162 18.6498 22.9774 16.9406 22.1626C15.2315 21.3478 13.3624 20.9233 11.4689 20.9199C9.5746 20.9236 7.70491 21.3486 5.99507 22.1641C4.28524 22.9796 2.77808 24.165 1.58296 25.6348C1.49765 25.7297 1.39324 25.8057 1.27656 25.8574C1.15989 25.9091 1.03358 25.9356 0.905959 25.9351C0.69333 25.9352 0.487448 25.8602 0.324905 25.7232C0.144052 25.5724 0.0295542 25.3568 0.00581274 25.1226C-0.0179287 24.8883 0.0510235 24.6542 0.197951 24.4702C2.02497 22.2575 4.45123 20.6182 7.18599 19.749C5.60943 18.8259 4.3747 17.4163 3.66719 15.7319C2.95968 14.0475 2.81746 12.1793 3.26192 10.4072C3.71693 8.57512 4.77246 6.94817 6.26021 5.78614C7.74795 4.62411 9.58215 3.99386 11.4699 3.9961C13.3575 3.99408 15.1914 4.62413 16.6789 5.78614C18.1664 6.94815 19.222 8.57528 19.677 10.4072C20.1213 12.1794 19.9789 14.0475 19.2712 15.7319C18.5635 17.4164 17.3286 18.826 15.7519 19.749C18.486 20.6174 20.9117 22.2556 22.738 24.4678C22.8453 24.5882 22.9182 24.7357 22.9492 24.894C22.9801 25.0524 22.968 25.2162 22.914 25.3682C22.8609 25.5203 22.7679 25.6553 22.6447 25.7593C22.5216 25.8632 22.373 25.9322 22.2141 25.959C22.1652 25.9677 22.1155 25.9722 22.0659 25.9722C21.9286 25.9736 21.7928 25.9434 21.6689 25.8843C21.545 25.8252 21.4363 25.7385 21.351 25.6309ZM0.905959 25.791C0.878959 25.791 0.852881 25.791 0.825881 25.791C0.851881 25.789 0.878959 25.791 0.905959 25.791ZM0.965041 25.791C1.13222 25.7785 1.29032 25.7103 1.41402 25.5972C1.28978 25.7098 1.13135 25.7773 0.964065 25.7891L0.965041 25.791ZM0.419875 25.6152C0.336262 25.5451 0.269058 25.4572 0.22261 25.3584C0.268873 25.4568 0.335724 25.5428 0.418899 25.6128L0.419875 25.6152ZM1.46992 25.541C2.67895 24.0545 4.20351 22.8554 5.93306 22.0308C7.66261 21.2061 9.55384 20.7765 11.4699 20.773C9.55383 20.7761 7.66254 21.2055 5.93281 22.0298C4.20309 22.8541 2.67827 24.0528 1.46895 25.5391L1.46992 25.541ZM15.3701 19.7979C16.7032 19.0886 17.8177 18.0295 18.5942 16.7344C19.3707 15.4392 19.7797 13.9569 19.7771 12.4468C19.7803 13.957 19.3718 15.4398 18.5957 16.7354C17.8195 18.0309 16.7051 19.0901 15.372 19.7998L15.3701 19.7979ZM7.56294 19.7979C6.22974 19.0886 5.11495 18.0295 4.33833 16.7344C3.56171 15.4392 3.15264 13.9569 3.15498 12.4468C3.15238 13.9574 3.56151 15.4403 4.33833 16.7358C5.11515 18.0314 6.23023 19.0905 7.56392 19.7998L7.56294 19.7979ZM4.81489 12.4639C4.81991 14.2262 5.52226 15.9151 6.76851 17.1611C8.01476 18.4072 9.7037 19.109 11.466 19.1138C13.2292 19.1119 14.9196 18.4108 16.1665 17.1641C17.4133 15.9174 18.1148 14.2271 18.1169 12.4639C18.1148 10.7006 17.4135 9.01004 16.1667 7.76319C14.9199 6.51634 13.2293 5.81511 11.466 5.81299C9.70358 5.81564 8.0141 6.51705 6.76778 7.76319C5.52145 9.00933 4.81976 10.6985 4.81685 12.4609L4.81489 12.4639ZM18.2648 12.4639C18.2648 10.6604 17.5486 8.93102 16.2734 7.65577C14.9981 6.38052 13.2685 5.66407 11.465 5.66407C13.2683 5.66354 14.9978 6.37916 16.2734 7.65381C17.549 8.92847 18.2662 10.6576 18.267 12.4609L18.2648 12.4639ZM25.165 20.0181V17.8999H23.0471C22.8088 17.8986 22.5806 17.8033 22.4121 17.6348C22.2436 17.4663 22.1482 17.2383 22.1469 17C22.1485 16.7618 22.2439 16.5337 22.4123 16.3652C22.5808 16.1968 22.8089 16.1017 23.0471 16.1001H25.165V13.9829C25.1663 13.7446 25.2616 13.5166 25.4301 13.3482C25.5986 13.1797 25.8266 13.0843 26.0649 13.083C26.3036 13.083 26.5326 13.1779 26.7014 13.3467C26.8702 13.5155 26.965 13.7442 26.965 13.9829V16.1001H29.083C29.3213 16.1014 29.5495 16.1967 29.718 16.3652C29.8865 16.5337 29.9816 16.7617 29.9829 17C29.9829 17.2387 29.8882 17.4675 29.7194 17.6362C29.5507 17.805 29.3217 17.8999 29.083 17.8999H26.965V20.0181C26.965 20.2568 26.8702 20.4855 26.7014 20.6543C26.5326 20.8231 26.3036 20.918 26.0649 20.918C25.827 20.9151 25.6 20.8189 25.4326 20.6499C25.2651 20.481 25.1706 20.253 25.1699 20.0151L25.165 20.0181ZM25.3129 20.0181C25.3129 20.2186 25.3926 20.411 25.5344 20.5527C25.6762 20.6945 25.8685 20.7739 26.069 20.7739C25.8689 20.7726 25.6774 20.6921 25.5366 20.5498C25.3958 20.4075 25.3173 20.2153 25.3181 20.0151L25.3129 20.0181Z" fill="#949498"/>
</g>
<defs>
<clipPath id="clip0_7_21">
<rect width="30" height="30" fill="white"/>
</clipPath>
</defs>
</svg>
