<svg xmlns="http://www.w3.org/2000/svg" width="30" height="30" viewBox="0 0 30 30">
  <g id="nav-home--gray" transform="translate(-1093.698 -2288)" style="isolation: isolate">
    <rect id="Rectangle_22824" data-name="Rectangle 22824" width="30" height="30" transform="translate(1093.698 2288)" fill="none"/>
    <path id="Path_24709" data-name="Path 24709" d="M33.831,49.364h0A1.83,1.83,0,0,1,32,47.533V36.956a1.834,1.834,0,0,1,.6-1.354l9.152-8.321a1.83,1.83,0,0,1,2.463,0L53.366,35.6a1.834,1.834,0,0,1,.6,1.354V47.533a1.833,1.833,0,0,1-1.83,1.83H46.643a1.833,1.833,0,0,1-1.83-1.83V42.041H41.151v5.491a1.833,1.833,0,0,1-1.83,1.83Zm9.151-20.729L33.83,36.956V47.533h5.491V42.041a1.833,1.833,0,0,1,1.83-1.83h3.661a1.833,1.833,0,0,1,1.83,1.83v5.491h5.492V36.956Z" transform="translate(1065.667 2264.262)" fill="#b6c5da"/>
  </g>
</svg>
