<svg xmlns="http://www.w3.org/2000/svg" width="30" height="29" viewBox="0 0 30 29">
  <g id="nav-order--gray" style="isolation: isolate">
    <rect id="Rectangle_23211" data-name="Rectangle 23211" width="30" height="29" fill="none"/>
    <path id="Union_49" data-name="Union 49" d="M1.824,25.4A1.839,1.839,0,0,1,0,23.55V1.85A1.839,1.839,0,0,1,1.824,0H13.5a.844.844,0,0,1,.6.253l6.812,6.9a.866.866,0,0,1,.249.61V23.55a1.839,1.839,0,0,1-1.824,1.85ZM1.7,1.85v21.7a.123.123,0,0,0,.121.124H19.342a.123.123,0,0,0,.122-.124V9.8h-7.1a.83.83,0,0,1-.811-.849V1.727H1.824A.122.122,0,0,0,1.7,1.85ZM13.173,8.1h6.269L13.173,1.75ZM6.691,19.481a.863.863,0,0,1,0-1.726h7.785a.863.863,0,0,1,0,1.726Zm0-3.945a.863.863,0,0,1,0-1.727h7.785a.863.863,0,0,1,0,1.727Z" transform="translate(4 2)" fill="#b6c5da"/>
  </g>
</svg>
