<svg width="30" height="30" viewBox="0 0 30 30" fill="none" xmlns="http://www.w3.org/2000/svg">
<g clip-path="url(#clip0_7_17)">
<path d="M5.8 25.626C5.55951 25.6262 5.32135 25.5789 5.09914 25.4869C4.87694 25.3949 4.67504 25.2601 4.50499 25.09C4.33494 24.92 4.20007 24.7181 4.1081 24.4959C4.01614 24.2737 3.96886 24.0355 3.96899 23.795V13.218C3.96938 12.963 4.02294 12.7109 4.12625 12.4778C4.22956 12.2446 4.38035 12.0356 4.56899 11.864L13.721 3.54302C14.0579 3.23651 14.497 3.06665 14.9525 3.06665C15.408 3.06665 15.8471 3.23651 16.184 3.54302L25.335 11.862C25.5236 12.0336 25.6744 12.2426 25.7777 12.4758C25.8811 12.7089 25.9346 12.961 25.935 13.216V23.795C25.9342 24.2801 25.7411 24.7451 25.3981 25.0882C25.0551 25.4312 24.5901 25.6242 24.105 25.625H18.612C18.1269 25.6242 17.6619 25.4312 17.3189 25.0882C16.9758 24.7451 16.7828 24.2801 16.782 23.795V18.303H13.12V23.794C13.1192 24.2791 12.9261 24.7441 12.5831 25.0872C12.2401 25.4302 11.7751 25.6232 11.29 25.624L5.8 25.626ZM14.951 4.89702L5.799 13.218V23.795H11.29V18.303C11.2908 17.8179 11.4838 17.3529 11.8269 17.0099C12.1699 16.6669 12.6349 16.4738 13.12 16.473H16.781C17.2661 16.4738 17.7311 16.6669 18.0741 17.0099C18.4171 17.3529 18.6102 17.8179 18.611 18.303V23.794H24.103V13.218L14.951 4.89702Z" fill="#949498"/>
</g>
<defs>
<clipPath id="clip0_7_17">
<rect width="30" height="30" fill="white"/>
</clipPath>
</defs>
</svg>
