<svg width="30" height="30" viewBox="0 0 30 30" fill="none" xmlns="http://www.w3.org/2000/svg">
<g clip-path="url(#clip0_7_25)">
<path d="M3.94995 25.1538C3.17021 25.1525 2.42269 24.8431 1.87012 24.293C1.31754 23.7428 1.00475 22.9965 1 22.2168V9.98682C1.00026 9.74475 1.09666 9.51296 1.26782 9.3418C1.43899 9.17063 1.67102 9.07448 1.91309 9.07422C2.15524 9.07448 2.38727 9.17066 2.55859 9.3418C2.72992 9.51293 2.82638 9.74466 2.8269 9.98682V22.2051C2.82743 22.5027 2.94598 22.7877 3.15649 22.998C3.36701 23.2084 3.65237 23.3269 3.94995 23.3271C4.24744 23.3269 4.53281 23.2084 4.74316 22.998C4.95352 22.7877 5.07176 22.5026 5.07202 22.2051V6.93213C5.07281 6.42067 5.27592 5.93039 5.63721 5.56836C5.99849 5.20633 6.48854 5.00185 7 5H27.364C27.8762 5.00053 28.3673 5.2042 28.7295 5.56641C29.0917 5.92861 29.2954 6.41989 29.2959 6.93213V22.2051C29.2948 22.987 28.9837 23.7367 28.4307 24.2896C27.8776 24.8424 27.1279 25.153 26.3459 25.1538H3.94995ZM6.75 6.93213C6.75 6.86476 6.77683 6.80008 6.82446 6.75244C6.8721 6.70481 6.93654 6.67822 7.00391 6.67822H27.3679H7C6.93333 6.67927 6.86977 6.70639 6.823 6.75391C6.77623 6.80143 6.74999 6.86545 6.75 6.93213ZM6.8999 6.93213V22.2051C6.90046 22.59 6.82509 22.9714 6.67798 23.3271H26.3501C26.6477 23.3269 26.933 23.2084 27.1436 22.998C27.3541 22.7877 27.4724 22.5027 27.4729 22.2051V6.93213C27.4729 6.90561 27.4624 6.88008 27.4436 6.86133C27.4248 6.84257 27.3996 6.83203 27.373 6.83203H7C6.97348 6.83203 6.94795 6.84257 6.9292 6.86133C6.91045 6.88008 6.8999 6.90561 6.8999 6.93213ZM12.0959 18.0269C11.8539 18.0266 11.6218 17.9304 11.4507 17.7593C11.2795 17.5881 11.1834 17.3558 11.1831 17.1138C11.1831 16.8714 11.279 16.6393 11.4502 16.4678C11.6214 16.2962 11.8536 16.1997 12.0959 16.1992H22.2781C22.5204 16.1997 22.7527 16.2962 22.9238 16.4678C23.095 16.6393 23.1909 16.8714 23.1909 17.1138C23.1907 17.3558 23.0945 17.5881 22.9233 17.7593C22.7522 17.9304 22.5201 18.0266 22.2781 18.0269H12.0959ZM11.333 17.1138C11.3333 17.316 11.4139 17.5103 11.5569 17.6533C11.6999 17.7964 11.8937 17.8767 12.0959 17.877H22.2781H12.1001C11.8978 17.8767 11.7038 17.7964 11.5608 17.6533C11.4178 17.5103 11.3372 17.316 11.3369 17.1138H11.333ZM12.0959 13.9551C11.854 13.9545 11.622 13.8581 11.4509 13.687C11.2798 13.5159 11.1836 13.284 11.1831 13.042C11.1831 12.7997 11.279 12.567 11.4502 12.3955C11.6214 12.224 11.8536 12.1275 12.0959 12.127H22.2781C22.5204 12.1275 22.7527 12.224 22.9238 12.3955C23.095 12.567 23.1909 12.7997 23.1909 13.042C23.1904 13.284 23.0942 13.5159 22.9231 13.687C22.752 13.8581 22.5201 13.9545 22.2781 13.9551H12.0959ZM11.333 13.042C11.3333 13.2443 11.4139 13.438 11.5569 13.5811C11.6999 13.7241 11.8937 13.8049 12.0959 13.8052H22.2781H12.1001C11.8978 13.8049 11.7038 13.7241 11.5608 13.5811C11.4178 13.438 11.3372 13.2443 11.3369 13.042H11.333Z" fill="#949498"/>
</g>
<defs>
<clipPath id="clip0_7_25">
<rect width="30" height="30" fill="white"/>
</clipPath>
</defs>
</svg>
