<svg xmlns="http://www.w3.org/2000/svg" width="30" height="30" viewBox="0 0 30 30">
  <g id="nav-inventory--white" transform="translate(-51 -377)">
    <rect id="Rectangle_22824" data-name="Rectangle 22824" width="30" height="30" transform="translate(51 377)" fill="#fff" opacity="0"/>
    <path id="Union_47" data-name="Union 47" d="M-10060.116,9316.016a.867.867,0,0,1-.885-.849v-7.755a.867.867,0,0,1,.885-.848.867.867,0,0,1,.886.848v6.906h18.459v-6.906a.868.868,0,0,1,.886-.848.868.868,0,0,1,.885.848v7.755a.868.868,0,0,1-.885.849Zm5.057-4.848a.866.866,0,0,1-.884-.848.867.867,0,0,1,.884-.849h10.116a.867.867,0,0,1,.884.849.866.866,0,0,1-.884.848Zm10.418-3.918-9.761-2.508a.845.845,0,0,1-.626-1.039.89.89,0,0,1,1.084-.6l9.762,2.509a.845.845,0,0,1,.626,1.038.882.882,0,0,1-.855.629A.924.924,0,0,1-10044.642,9307.25Zm1.354-3.708-8.762-4.846a.831.831,0,0,1-.325-1.159.907.907,0,0,1,1.21-.311l8.762,4.847a.83.83,0,0,1,.325,1.158.9.9,0,0,1-.769.425A.91.91,0,0,1-10043.287,9303.542Zm2.308-3.248-7.144-6.846a.823.823,0,0,1,0-1.2.911.911,0,0,1,1.252,0l7.143,6.845a.824.824,0,0,1,0,1.2.9.9,0,0,1-.626.248A.9.9,0,0,1-10040.979,9300.294Z" transform="translate(10116.002 -8912)" fill="#fff"/>
  </g>
</svg>
