<svg xmlns="http://www.w3.org/2000/svg" width="30" height="30" viewBox="0 0 30 30">
  <g id="nav-formula--white" transform="translate(-208 -519)" style="isolation: isolate">
    <rect id="Rectangle_23209" data-name="Rectangle 23209" width="30" height="30" transform="translate(208 519)" fill="none"/>
    <path id="Union_48" data-name="Union 48" d="M1.85,24.663A1.859,1.859,0,0,1,.262,21.851l2.847-4.745a.867.867,0,0,1,.091-.151L8.145,8.713l.011-6.73H7.043A.991.991,0,0,1,7.043,0h9.915a.991.991,0,1,1,0,1.983H15.842V8.651l5.288,8.84a.844.844,0,0,1,.058.1l2.549,4.262a1.859,1.859,0,0,1-1.579,2.813Zm-.1-1.921a.124.124,0,0,0,.106.186H22.15a.122.122,0,0,0,.1-.063.124.124,0,0,0,0-.124l-2.1-3.5a6.266,6.266,0,0,1-3.244.845,11.914,11.914,0,0,1-5.291-1.459c-2.961-1.476-5.4-1.665-7.058-.55ZM12.387,17.07c2.838,1.423,5.191,1.651,6.865.677L14.367,9.605a1.928,1.928,0,0,1-.26-.949V1.983H9.893V8.651a1.919,1.919,0,0,1-.25.937L5.973,15.706a7.089,7.089,0,0,1,1.122-.087A11.969,11.969,0,0,1,12.387,17.07Z" transform="translate(211 522)" fill="#fff"/>
  </g>
</svg>
