<svg xmlns="http://www.w3.org/2000/svg" width="30" height="30" viewBox="0 0 30 30">
  <g id="pen--white--30" transform="translate(-1024 -720)">
    <rect id="Rectangle_23298" data-name="Rectangle 23298" width="30" height="30" transform="translate(1024 720)" fill="none"/>
    <path id="Union_58" data-name="Union 58" d="M6.993,22.815H1.758A1.759,1.759,0,0,1,0,21.057V15.819a1.732,1.732,0,0,1,.508-1.235L11.478,3.615,11.49,3.6l.013-.013L14.572.52a1.758,1.758,0,0,1,2.5,0l5.222,5.222a1.758,1.758,0,0,1,0,2.5l-3.078,3.078L8.232,22.3A1.736,1.736,0,0,1,7,22.815ZM1.67,15.742,1.64,21.057a.117.117,0,0,0,.117.117H7a.108.108,0,0,0,.075-.03l10.4-10.4-5.4-5.4ZM18.633,9.584l2.5-2.5s0-.174,0-.176L15.908,1.68s-.109,0-.155,0h-.021l-2.5,2.5Z" transform="translate(1027.867 723.318)" fill="#fff"/>
  </g>
</svg>
