<svg xmlns="http://www.w3.org/2000/svg" width="30" height="30" viewBox="0 0 30 30">
  <g id="pin--gray--30" transform="translate(-451 -1048)">
    <rect id="Rectangle_23432" data-name="Rectangle 23432" width="30" height="30" transform="translate(451 1048)" fill="none"/>
    <path id="map-pin_2_" data-name="map-pin (2)" d="M50,21.455A4.545,4.545,0,1,0,54.545,26,4.545,4.545,0,0,0,50,21.455Zm0,7.273A2.727,2.727,0,1,1,52.727,26,2.727,2.727,0,0,1,50,28.727ZM50,16A10.011,10.011,0,0,0,40,26c0,3.568,1.649,7.35,4.773,10.938a28.885,28.885,0,0,0,4.71,4.352.909.909,0,0,0,1.043,0,28.885,28.885,0,0,0,4.7-4.352C58.347,33.35,60,29.568,60,26A10.011,10.011,0,0,0,50,16Zm0,23.409c-1.878-1.477-8.182-6.9-8.182-13.409a8.182,8.182,0,0,1,16.364,0C58.182,32.5,51.878,37.932,50,39.409Z" transform="translate(416 1034)" fill="#ff580a"/>
  </g>
</svg>
