<svg xmlns="http://www.w3.org/2000/svg" width="30" height="30" viewBox="0 0 30 30">
  <g id="print--white--30" transform="translate(-155 -1050)">
    <rect id="Rectangle_23299" data-name="Rectangle 23299" width="30" height="30" transform="translate(155 1050)" fill="none"/>
    <path id="Union_56" data-name="Union 56" d="M5.224,23a.84.84,0,0,1-.85-.83V17.783H.85a.84.84,0,0,1-.85-.83V7.469A2.849,2.849,0,0,1,2.952,4.742H4.374V.83A.84.84,0,0,1,5.224,0H20.776a.84.84,0,0,1,.851.83V4.742h1.422A2.849,2.849,0,0,1,26,7.469v9.484a.84.84,0,0,1-.85.83H21.626V22.17a.84.84,0,0,1-.851.83Zm.85-1.66H19.925v-6.4H6.075v6.4ZM24.3,16.124V7.469A1.186,1.186,0,0,0,23.048,6.4H2.952A1.186,1.186,0,0,0,1.7,7.469v8.655H4.374V14.108a.84.84,0,0,1,.85-.83H20.776a.84.84,0,0,1,.851.83v2.016ZM19.925,4.742V1.66H6.075V4.742Zm-1.093,5.1a1.458,1.458,0,1,1,1.458,1.423A1.441,1.441,0,0,1,18.832,9.84Z" transform="translate(157 1054)" fill="#fff"/>
  </g>
</svg>
