<svg xmlns="http://www.w3.org/2000/svg" width="30" height="30" viewBox="0 0 30 30">
  <g id="search--white--30" transform="translate(-390 -1048)">
    <rect id="Rectangle_23431" data-name="Rectangle 23431" width="30" height="30" transform="translate(390 1048)" fill="none" opacity="0.3"/>
    <path id="Union_64" data-name="Union 64" d="M2188.736-4759.2h0l-5.41-5.414a9.3,9.3,0,0,1-6.023,2.211,9.374,9.374,0,0,1-3.652-.738,9.32,9.32,0,0,1-3.152-2.219,9.258,9.258,0,0,1-2.494-6.508,9.3,9.3,0,0,1,2.717-6.418,9.275,9.275,0,0,1,6.58-2.711,9.235,9.235,0,0,1,6.344,2.492,9.225,9.225,0,0,1,2.943,6.32,9.235,9.235,0,0,1-2.2,6.5l5.414,5.414a.752.752,0,0,1-.018,1.043.756.756,0,0,1-.533.223A.742.742,0,0,1,2188.736-4759.2Zm.508.086a.63.63,0,0,0,.455-.184.65.65,0,0,0,.188-.461.65.65,0,0,1-.187.461.645.645,0,0,1-.725.125A.727.727,0,0,0,2189.244-4759.113Zm-.434-.172-5.482-5.48a9.194,9.194,0,0,1-12.75-.664,9.176,9.176,0,0,1-2.471-6.273,9.176,9.176,0,0,0,2.471,6.273,9.194,9.194,0,0,0,12.75.664Zm-19.285-12.41a7.816,7.816,0,0,0,7.791,7.8,7.8,7.8,0,0,0,7.781-7.8,7.793,7.793,0,0,0-7.781-7.781A7.8,7.8,0,0,0,2169.525-4771.7Zm14.709,6.016a9.151,9.151,0,0,0,2.256-6.023A9.151,9.151,0,0,1,2184.234-4765.68Zm.975-6.016a7.885,7.885,0,0,0-7.893-7.883,7.887,7.887,0,0,0-7.9,7.883,7.887,7.887,0,0,1,7.9-7.883A7.885,7.885,0,0,1,2185.209-4771.7Z" transform="translate(-1773.999 5832.996)" fill="#fff"/>
  </g>
</svg>
