<svg xmlns="http://www.w3.org/2000/svg" width="30" height="30" viewBox="0 0 30 30">
  <g id="status--unstage" transform="translate(-377 -695)">
    <rect id="Rectangle_22831" data-name="Rectangle 22831" width="30" height="30" transform="translate(377 695)" fill="#1976d2" opacity="0"/>
    <path id="Exclusion_10" data-name="Exclusion 10" d="M2358-5172a11.922,11.922,0,0,1-8.486-3.515A11.922,11.922,0,0,1,2346-5184a11.921,11.921,0,0,1,3.515-8.486A11.92,11.92,0,0,1,2358-5196a11.918,11.918,0,0,1,8.485,3.515A11.923,11.923,0,0,1,2370-5184a11.922,11.922,0,0,1-3.515,8.485A11.921,11.921,0,0,1,2358-5172Zm-5.5-12.5a1,1,0,0,0-1,1,1,1,0,0,0,1,1h11a1,1,0,0,0,1-1,1,1,0,0,0-1-1Z" transform="translate(-1966 5894)" fill="#b6c5da"/>
  </g>
</svg>
