<svg width="30" height="30" viewBox="0 0 30 30" fill="none" xmlns="http://www.w3.org/2000/svg">
<g clip-path="url(#clip0_16_41)">
<path d="M15 27C13.4234 27.0044 11.8615 26.6962 10.4048 26.0928C8.9482 25.4895 7.62575 24.6028 6.51396 23.4849C5.39635 22.3732 4.51045 21.0507 3.90727 19.5943C3.3041 18.1378 2.99571 16.5764 3.00005 15C2.99566 13.4234 3.30416 11.8615 3.90752 10.4048C4.51087 8.9482 5.39698 7.62596 6.51494 6.51421C7.62663 5.39651 8.94911 4.51046 10.4056 3.90727C11.862 3.30409 13.4236 2.99561 15 3.00005C16.5765 2.99563 18.1383 3.30391 19.5948 3.90727C21.0512 4.51063 22.3736 5.39722 23.4852 6.51518C24.6029 7.62689 25.489 8.94888 26.0923 10.4053C26.6957 11.8618 27.0042 13.4236 27 15C27.0042 16.5765 26.6957 18.1383 26.0923 19.5948C25.489 21.0512 24.6029 22.3732 23.4852 23.4849C22.3735 24.6027 21.051 25.489 19.5945 26.0923C18.1381 26.6957 16.5765 27.0043 15 27ZM9.50005 14.5C9.23483 14.5 8.98055 14.6055 8.79302 14.793C8.60548 14.9806 8.50005 15.2348 8.50005 15.5C8.50005 15.7653 8.60548 16.0195 8.79302 16.2071C8.98055 16.3946 9.23483 16.5 9.50005 16.5H20.5C20.7653 16.5 21.0195 16.3946 21.2071 16.2071C21.3946 16.0195 21.5 15.7653 21.5 15.5C21.5 15.2348 21.3946 14.9806 21.2071 14.793C21.0195 14.6055 20.7653 14.5 20.5 14.5H9.50005Z" fill="#8D9699"/>
</g>
<defs>
<clipPath id="clip0_16_41">
<rect width="30" height="30" fill="white"/>
</clipPath>
</defs>
</svg>
