<svg width="30" height="30" viewBox="0 0 30 30" fill="none" xmlns="http://www.w3.org/2000/svg">
<g clip-path="url(#clip0_14_37)">
<path d="M14.985 3C12.6146 3 10.2974 3.70291 8.3265 5.01984C6.35557 6.33677 4.81943 8.20857 3.91231 10.3985C3.00519 12.5885 2.76785 14.9983 3.23029 17.3232C3.69274 19.648 4.8342 21.7835 6.51033 23.4597C8.18646 25.1358 10.322 26.2773 12.6468 26.7397C14.9717 27.2022 17.3815 26.9648 19.5715 26.0577C21.7614 25.1506 23.6332 23.6144 24.9502 21.6435C26.2671 19.6726 26.97 17.3554 26.97 14.985C26.97 13.4111 26.66 11.8526 26.0577 10.3985C25.4554 8.94445 24.5726 7.62323 23.4597 6.51032C22.3468 5.39741 21.0256 4.51461 19.5715 3.9123C18.1174 3.31 16.5589 3 14.985 3ZM20.693 12.886L13.932 19.34C13.7601 19.5036 13.5318 19.5948 13.2945 19.5948C13.0572 19.5948 12.829 19.5036 12.657 19.34L9.27701 16.113C9.18556 16.0302 9.11162 15.93 9.05957 15.8182C9.00751 15.7064 8.97838 15.5853 8.97391 15.4621C8.96944 15.3388 8.98972 15.2159 9.03354 15.1006C9.07737 14.9854 9.14385 14.88 9.22906 14.7909C9.31427 14.7017 9.41649 14.6305 9.52967 14.5816C9.64285 14.5326 9.7647 14.5067 9.88803 14.5056C10.0114 14.5045 10.1336 14.5282 10.2477 14.5751C10.3617 14.6221 10.4652 14.6914 10.552 14.779L13.294 17.4L19.418 11.554C19.5963 11.3927 19.8305 11.3073 20.0708 11.316C20.311 11.3247 20.5384 11.4268 20.7046 11.6007C20.8707 11.7745 20.9624 12.0062 20.9603 12.2467C20.9581 12.4871 20.8622 12.7172 20.693 12.888V12.886Z" fill="#1EAB0C"/>
</g>
<defs>
<clipPath id="clip0_14_37">
<rect width="30" height="30" fill="white"/>
</clipPath>
</defs>
</svg>
