<svg xmlns="http://www.w3.org/2000/svg" width="30" height="30" viewBox="0 0 30 30">
  <g id="status--no" transform="translate(-184 -504)">
    <rect id="Rectangle_22832" data-name="Rectangle 22832" width="30" height="30" transform="translate(184 504)" fill="none"/>
    <path id="Path_24712" data-name="Path 24712" d="M36.2,24a12.2,12.2,0,1,0,12.2,12.2A12.2,12.2,0,0,0,36.2,24Zm4.419,15.3A.939.939,0,1,1,39.3,40.623L36.2,37.532l-3.091,3.091A.939.939,0,0,1,31.785,39.3L34.877,36.2l-3.091-3.091a.939.939,0,0,1,1.328-1.327L36.2,34.877,39.3,31.785a.939.939,0,0,1,1.328,1.327L37.532,36.2Z" transform="translate(162.816 482.775)" fill="#fc6016"/>
  </g>
</svg>
