<svg xmlns="http://www.w3.org/2000/svg" width="30" height="30" viewBox="0 0 30 30">
  <g id="status--progress" transform="translate(-386 -713)">
    <rect id="Rectangle_22831" data-name="Rectangle 22831" width="30" height="30" transform="translate(386 713)" fill="#1976d2" opacity="0"/>
    <path id="Subtraction_1" data-name="Subtraction 1" d="M-646.015-8901.031a11.91,11.91,0,0,1-8.475-3.509,11.906,11.906,0,0,1-3.511-8.475,11.908,11.908,0,0,1,3.511-8.476,11.909,11.909,0,0,1,8.475-3.51,11.909,11.909,0,0,1,8.475,3.51,11.908,11.908,0,0,1,3.511,8.476,11.906,11.906,0,0,1-3.511,8.475A11.91,11.91,0,0,1-646.015-8901.031ZM-647.6-8918.9a.9.9,0,0,0-.636.264.9.9,0,0,0-.264.638.9.9,0,0,0,.264.637l4.363,4.361-4.363,4.365a.9.9,0,0,0-.264.636.9.9,0,0,0,.264.637.886.886,0,0,0,.636.265.886.886,0,0,0,.636-.265l5-5a.9.9,0,0,0,.264-.639.885.885,0,0,0-.264-.636l-5-5A.9.9,0,0,0-647.6-8918.9Z" transform="translate(1047 9641)" fill="#5dd0fc"/>
  </g>
</svg>
