<svg xmlns="http://www.w3.org/2000/svg" width="30" height="30" viewBox="0 0 30 30">
  <g id="trash--gray--30" transform="translate(-1770 -689)">
    <rect id="Rectangle_23301" data-name="Rectangle 23301" width="30" height="30" transform="translate(1770 689)" fill="none"/>
    <path id="Union_57" data-name="Union 57" d="M3.589,24.032a1.745,1.745,0,0,1-1.737-1.75V5.366H.81a.817.817,0,0,1,0-1.633H5.558V2.683A2.676,2.676,0,0,1,8.221,0h5.558a2.676,2.676,0,0,1,2.663,2.683v1.05H21.19a.817.817,0,0,1,0,1.633H20.148V22.282a1.745,1.745,0,0,1-1.737,1.75Zm-.116-1.75a.116.116,0,0,0,.116.117H18.411a.116.116,0,0,0,.116-.117V5.366H3.474ZM14.821,3.733V2.683a1.047,1.047,0,0,0-1.042-1.05H8.221a1.047,1.047,0,0,0-1.042,1.05v1.05ZM12.969,17.616V10.15a.811.811,0,1,1,1.621,0v7.466a.811.811,0,1,1-1.621,0Zm-5.558,0V10.15a.81.81,0,1,1,1.621,0v7.466a.811.811,0,1,1-1.621,0Z" transform="translate(1774 692)" fill="#d2d3d8"/>
  </g>
</svg>
